<svg xmlns="http://www.w3.org/2000/svg" xmlns:xlink="http://www.w3.org/1999/xlink" version="1.1" width="492.75" height="495" viewBox="0 0 492.75 495">
<defs>
<clipPath id="clip_0">
<path transform="matrix(.24,0,0,.24,0,0)" d="M0 0H2053.125V2062.5H0Z" fill-rule="evenodd"/>
</clipPath>
<clipPath id="clip_1">
<path transform="matrix(.24,0,0,.24,0,0)" d="M0 0H2053.125V2062.5H0Z"/>
</clipPath>
<clipPath id="clip_2">
<path transform="matrix(.24,0,0,.24,0,0)" d="M0 0H2053.125V2062.5H0Z"/>
</clipPath>
<clipPath id="clip_3">
<path transform="matrix(.24,0,0,.24,0,0)" d="M354.98219 360.737H1695.6072V1701.362H354.98219Z"/>
</clipPath>
<clipPath id="clip_4">
<path transform="matrix(.24,0,0,.24,0,0)" d="M1025.2947 360.737C655.0913 360.737 354.98219 660.8461 354.98219 1031.0496 354.98219 1401.2529 655.0913 1701.362 1025.2947 1701.362 1395.498 1701.362 1695.6072 1401.2529 1695.6072 1031.0496 1695.6072 660.8461 1395.498 360.737 1025.2947 360.737Z"/>
</clipPath>
<clipPath id="clip_5">
<path transform="matrix(.24,0,0,.24,0,0)" d="M1731.2323 984.9986H2053.1075V1075.6235H1731.2323Z" fill-rule="evenodd"/>
</clipPath>
<clipPath id="clip_6">
<path transform="matrix(.24,0,0,.24,0,0)" d="M0 0H2053.125V2062.5H0Z"/>
</clipPath>
<clipPath id="clip_7">
<path transform="matrix(.24,0,0,.24,0,0)" d="M0 0H2053.125V2062.5H0Z"/>
</clipPath>
<clipPath id="clip_8">
<path transform="matrix(.24,0,0,.24,0,0)" d="M1621.6957 1426.6587 1892.5995 1600.4823 1843.6588 1676.7562 1572.755 1502.9326 1621.6957 1426.6587Z"/>
</clipPath>
<clipPath id="clip_9">
<path transform="matrix(.24,0,0,.24,0,0)" d="M1621.6957 1426.6587 1892.5995 1600.4823 1843.6588 1676.7562 1572.755 1502.9326 1621.6957 1426.6587Z"/>
</clipPath>
<clipPath id="clip_10">
<path transform="matrix(.24,0,0,.24,0,0)" d="M0 1031.0496H321.875V1121.6746H0Z" fill-rule="evenodd"/>
</clipPath>
<clipPath id="clip_11">
<path transform="matrix(.24,0,0,.24,0,0)" d="M0 0H2053.125V2062.5H0Z"/>
</clipPath>
<clipPath id="clip_12">
<path transform="matrix(.24,0,0,.24,0,0)" d="M0 0H2053.125V2062.5H0Z"/>
</clipPath>
<clipPath id="clip_13">
<path transform="matrix(.24,0,0,.24,0,0)" d="M164.62717 1627.5764 422.48564 1434.9303 476.7258 1507.5313 218.86734 1700.1774 164.62717 1627.5764Z"/>
</clipPath>
<clipPath id="clip_14">
<path transform="matrix(.24,0,0,.24,0,0)" d="M164.62717 1627.5764 422.48564 1434.9303 476.7258 1507.5313 218.86734 1700.1774 164.62717 1627.5764Z"/>
</clipPath>
<clipPath id="clip_15">
<path transform="matrix(.24,0,0,.24,0,0)" d="M0 0H2053.125V2062.5H0Z"/>
</clipPath>
<clipPath id="clip_16">
<path transform="matrix(.24,0,0,.24,0,0)" d="M0 0H2053.125V2062.5H0Z"/>
</clipPath>
<clipPath id="clip_17">
<path transform="matrix(.24,0,0,.24,0,0)" d="M1034.961 2061.1778 1025.2616 1739.449 1115.8455 1736.718 1125.5449 2058.4468 1034.961 2061.1778Z"/>
</clipPath>
<clipPath id="clip_18">
<path transform="matrix(.24,0,0,.24,0,0)" d="M1034.961 2061.1778 1025.2616 1739.449 1115.8455 1736.718 1125.5449 2058.4468 1034.961 2061.1778Z"/>
</clipPath>
<clipPath id="clip_19">
<path transform="matrix(.24,0,0,.24,0,0)" d="M0 0H2053.125V2062.5H0Z"/>
</clipPath>
<clipPath id="clip_20">
<path transform="matrix(.24,0,0,.24,0,0)" d="M0 0H2053.125V2062.5H0Z"/>
</clipPath>
<clipPath id="clip_21">
<path transform="matrix(.24,0,0,.24,0,0)" d="M984.10049 323.23005 974.401 1.5012207 1064.9849-1.2296753 1074.6843 320.49916 984.10049 323.23005Z"/>
</clipPath>
<clipPath id="clip_22">
<path transform="matrix(.24,0,0,.24,0,0)" d="M984.10049 323.23005 974.401 1.5012207 1064.9849-1.2296753 1074.6843 320.49916 984.10049 323.23005Z"/>
</clipPath>
<clipPath id="clip_23">
<path transform="matrix(.24,0,0,.24,0,0)" d="M0 0H2053.125V2062.5H0Z"/>
</clipPath>
<clipPath id="clip_24">
<path transform="matrix(.24,0,0,.24,0,0)" d="M0 0H2053.125V2062.5H0Z"/>
</clipPath>
<clipPath id="clip_25">
<path transform="matrix(.24,0,0,.24,0,0)" d="M1508.5172 526.1825 1750.5159 313.95576 1810.269 382.09129 1568.2704 594.318 1508.5172 526.1825Z"/>
</clipPath>
<clipPath id="clip_26">
<path transform="matrix(.24,0,0,.24,0,0)" d="M1508.5172 526.1825 1750.5159 313.95576 1810.269 382.09129 1568.2704 594.318 1508.5172 526.1825Z"/>
</clipPath>
<clipPath id="clip_27">
<path transform="matrix(.24,0,0,.24,0,0)" d="M0 0H2053.125V2062.5H0Z"/>
</clipPath>
<clipPath id="clip_28">
<path transform="matrix(.24,0,0,.24,0,0)" d="M0 0H2053.125V2062.5H0Z"/>
</clipPath>
<clipPath id="clip_29">
<path transform="matrix(.24,0,0,.24,0,0)" d="M523.9358 529.79458 296.33583 302.19459 360.41737 238.113 588.01736 465.713 523.9358 529.79458Z"/>
</clipPath>
<clipPath id="clip_30">
<path transform="matrix(.24,0,0,.24,0,0)" d="M523.9358 529.79458 296.33583 302.19459 360.41737 238.113 588.01736 465.713 523.9358 529.79458Z"/>
</clipPath>
<clipPath id="clip_31">
<path transform="matrix(.24,0,0,.24,0,0)" d="M0 0H2053.125V2062.5H0Z"/>
</clipPath>
<clipPath id="clip_32">
<path transform="matrix(.24,0,0,.24,0,0)" d="M0 0H2053.125V2062.5H0Z"/>
</clipPath>
<clipPath id="clip_33">
<path transform="matrix(.24,0,0,.24,0,0)" d="M694.6608 795.737H813.1041V914.1803H694.6608Z"/>
</clipPath>
<clipPath id="clip_34">
<path transform="matrix(.24,0,0,.24,0,0)" d="M753.8825 795.737C721.1753 795.737 694.6608 822.25149 694.6608 854.9587 694.6608 887.6659 721.1753 914.1803 753.8825 914.1803 786.5897 914.1803 813.1041 887.6659 813.1041 854.9587 813.1041 822.25149 786.5897 795.737 753.8825 795.737Z"/>
</clipPath>
<clipPath id="clip_35">
<path transform="matrix(.24,0,0,.24,0,0)" d="M0 0H2053.125V2062.5H0Z"/>
</clipPath>
<clipPath id="clip_36">
<path transform="matrix(.24,0,0,.24,0,0)" d="M0 0H2053.125V2062.5H0Z"/>
</clipPath>
<clipPath id="clip_37">
<path transform="matrix(.24,0,0,.24,0,0)" d="M1217.6355 795.737H1336.0789V914.1803H1217.6355Z"/>
</clipPath>
<clipPath id="clip_38">
<path transform="matrix(.24,0,0,.24,0,0)" d="M1276.8572 795.737C1244.1499 795.737 1217.6355 822.25149 1217.6355 854.9587 1217.6355 887.6659 1244.1499 914.1803 1276.8572 914.1803 1309.5643 914.1803 1336.0789 887.6659 1336.0789 854.9587 1336.0789 822.25149 1309.5643 795.737 1276.8572 795.737Z"/>
</clipPath>
<clipPath id="clip_39">
<path transform="matrix(.24,0,0,.24,0,0)" d="M0 0H2053.125V2062.5H0Z"/>
</clipPath>
<clipPath id="clip_40">
<path transform="matrix(.24,0,0,.24,0,0)" d="M0 0H2053.125V2062.5H0Z"/>
</clipPath>
<clipPath id="clip_41">
<path transform="matrix(.24,0,0,.24,0,0)" d="M889.602 1123.1513H1103.0164V1336.5656H889.602Z"/>
</clipPath>
<clipPath id="clip_42">
<path transform="matrix(.24,0,0,.24,0,0)" d="M996.30917 1123.1513C937.3764 1123.1513 889.602 1170.9257 889.602 1229.8584 889.602 1288.7911 937.3764 1336.5656 996.30917 1336.5656 1055.242 1336.5656 1103.0164 1288.7911 1103.0164 1229.8584 1103.0164 1170.9257 1055.242 1123.1513 996.30917 1123.1513Z"/>
</clipPath>
</defs>
<g clip-path="url(#clip_0)">
<path transform="matrix(.75,0,0,.75,0,0)" d="M0 0H657V660H0Z" fill="none"/>
</g>
<g clip-path="url(#clip_1)">
<g clip-path="url(#clip_2)">
<g clip-path="url(#clip_3)">
<g clip-path="url(#clip_4)">
<path transform="matrix(1.2568359,0,0,1.2568359,85.195728,86.57688)" d="M0 0H256V256H0Z" fill="#ffde59"/>
</g>
</g>
</g>
</g>
<g clip-path="url(#clip_5)">
<path transform="matrix(.16030273,0,0,.16030273,412.93089,206.41295)" d="M496 255.99999C496 258.25617 495.61479 260.50697 494.84434 262.7523 494.0739 264.99763 492.92195 267.2267 491.38847 269.43955 489.855 271.6524 487.94743 273.83836 485.6657 275.9974 483.38398 278.15644 480.73908 280.2782 477.73106 282.36265 474.72309 284.4471 471.36643 286.48423 467.66108 288.474 463.95576 290.4638 459.91963 292.39668 455.55265 294.2726 451.18574 296.1486 446.509 297.95863 441.52247 299.70268 436.53599 301.44676 431.26368 303.11647 425.7056 304.71183 420.14753 306.3072 414.33045 307.82057 408.25434 309.2519 402.17826 310.6832 395.8724 312.02558 389.3368 313.27903 382.8012 314.53254 376.06736 315.69105 369.1352 316.7546 362.20304 317.81819 355.106 318.78166 347.844 319.64506 340.58207 320.50849 333.19017 321.26768 325.66835 321.9226 318.1465 322.57756 310.53096 323.12513 302.82167 323.56529 295.1124 324.00544 287.34657 324.3361 279.52415 324.55726 271.70167 324.7784 263.8603 324.88899 256 324.88899 248.13971 324.88899 240.29834 324.7784 232.47589 324.55726 224.65343 324.3361 216.88758 324.00544 209.1783 323.56529 201.46906 323.12513 193.8535 322.57756 186.33167 321.9226 178.80983 321.26768 171.41794 320.5085 164.15596 319.64509 156.89402 318.78169 149.79695 317.8182 142.86478 316.75468 135.9326 315.6911 129.19873 314.53257 122.66313 313.27906 116.12754 312.0256 109.8217 310.6832 103.745609 309.2519 97.66952 307.82057 91.85243 306.3072 86.294368 304.71183 80.7363 303.11647 75.464008 301.44676 70.477489 299.70268 65.49097 297.95863 60.814237 296.1486 56.447286 294.27265 52.08034 292.3967 48.04421 290.4638 44.33889 288.47404 40.63357 286.48426 37.276914 284.4471 34.268907 282.36265 31.260903 280.2782 28.61604 278.15644 26.334319 275.9974 24.052594 273.83836 22.144999 271.6524 20.61153 269.43955 19.078064 267.2267 17.92611 264.99763 17.155665 262.7523 16.385222 260.50697 16 258.25617 16 255.99999 16 253.74379 16.385222 251.49303 17.155667 249.24768 17.92611 247.00234 19.078064 244.77324 20.61153 242.56038 22.144999 240.34754 24.052594 238.16159 26.334319 236.00255 28.61604 233.8435 31.260903 231.72174 34.268907 229.63729 37.276914 227.55283 40.63357 225.51572 44.33889 223.52593 48.04421 221.53614 52.08034 219.60324 56.447286 217.72728 60.814237 215.85132 65.49097 214.04132 70.477489 212.29726 75.464008 210.55319 80.7363 208.88347 86.294368 207.28809 91.85243 205.69272 97.66952 204.17937 103.745609 202.74805 109.8217 201.31673 116.12754 199.97434 122.66313 198.72086 129.19873 197.46739 135.93262 196.30889 142.86479 195.24532 149.79695 194.18175 156.89402 193.21826 164.15598 192.35485 171.41796 191.49146 178.80985 190.73229 186.33168 190.07735 193.85352 189.4224 201.46907 188.87485 209.17832 188.4347 216.88759 187.99454 224.65345 187.66388 232.4759 187.44274 240.29834 187.22158 248.13971 187.111 256 187.111 263.8603 187.111 271.70167 187.22158 279.52415 187.44274 287.34657 187.66388 295.1124 187.99454 302.82167 188.4347 310.53096 188.87485 318.1465 189.4224 325.66835 190.07735 333.19017 190.73229 340.58207 191.49146 347.844 192.35485 355.106 193.21826 362.20304 194.18175 369.1352 195.2453 376.06736 196.30889 382.8012 197.46739 389.3368 198.72086 395.8724 199.97435 402.17826 201.31674 408.25434 202.74806 414.33045 204.17938 420.14753 205.69274 425.7056 207.2881 431.26368 208.88349 436.53599 210.5532 441.52247 212.29727 446.509 214.04132 451.18574 215.85132 455.55265 217.72728 459.91963 219.60324 463.95576 221.53612 467.66108 223.52591 471.36643 225.5157 474.72309 227.55283 477.73106 229.63729 480.73908 231.72174 483.38398 233.8435 485.66569 236.00255 487.94743 238.16159 489.855 240.34754 491.38847 242.56038 492.92195 244.77324 494.0739 247.00234 494.84437 249.24768 495.61479 251.49303 496 253.74379 496 255.99999Z" fill="#ffde59"/>
</g>
<g clip-path="url(#clip_6)">
<g clip-path="url(#clip_7)">
<g clip-path="url(#clip_8)">
<g clip-path="url(#clip_9)">
<path transform="matrix(.13491763,.08656903,-.08656903,.13491763,403.24217,315.77488)" d="M496 255.99999C496 258.25617 495.61479 260.50697 494.84434 262.7523 494.0739 264.99763 492.92195 267.2267 491.38847 269.43955 489.855 271.6524 487.94743 273.83836 485.6657 275.9974 483.38398 278.15644 480.73908 280.2782 477.73106 282.36265 474.72309 284.4471 471.36643 286.48423 467.66108 288.474 463.95576 290.4638 459.91963 292.39668 455.55265 294.2726 451.18574 296.1486 446.509 297.95863 441.52247 299.70268 436.53599 301.44676 431.26368 303.11647 425.7056 304.71183 420.14753 306.3072 414.33045 307.82057 408.25434 309.2519 402.17826 310.6832 395.8724 312.02558 389.3368 313.27903 382.8012 314.53254 376.06736 315.69105 369.1352 316.7546 362.20304 317.81819 355.106 318.78166 347.844 319.64506 340.58207 320.50849 333.19017 321.26768 325.66835 321.9226 318.1465 322.57756 310.53096 323.12513 302.82167 323.56529 295.1124 324.00544 287.34657 324.3361 279.52415 324.55726 271.70167 324.7784 263.8603 324.88899 256 324.88899 248.13971 324.88899 240.29834 324.7784 232.47589 324.55726 224.65343 324.3361 216.88758 324.00544 209.1783 323.56529 201.46906 323.12513 193.8535 322.57756 186.33167 321.9226 178.80983 321.26768 171.41794 320.5085 164.15596 319.64509 156.89402 318.78169 149.79695 317.8182 142.86478 316.75468 135.9326 315.6911 129.19873 314.53257 122.66313 313.27906 116.12754 312.0256 109.8217 310.6832 103.745609 309.2519 97.66952 307.82057 91.85243 306.3072 86.294368 304.71183 80.7363 303.11647 75.464008 301.44676 70.477489 299.70268 65.49097 297.95863 60.814237 296.1486 56.447286 294.27265 52.08034 292.3967 48.04421 290.4638 44.33889 288.47404 40.63357 286.48426 37.276914 284.4471 34.268907 282.36265 31.260903 280.2782 28.61604 278.15644 26.334319 275.9974 24.052594 273.83836 22.144999 271.6524 20.61153 269.43955 19.078064 267.2267 17.92611 264.99763 17.155665 262.7523 16.385222 260.50697 16 258.25617 16 255.99999 16 253.74379 16.385222 251.49303 17.155667 249.24768 17.92611 247.00234 19.078064 244.77324 20.61153 242.56038 22.144999 240.34754 24.052594 238.16159 26.334319 236.00255 28.61604 233.8435 31.260903 231.72174 34.268907 229.63729 37.276914 227.55283 40.63357 225.51572 44.33889 223.52593 48.04421 221.53614 52.08034 219.60324 56.447286 217.72728 60.814237 215.85132 65.49097 214.04132 70.477489 212.29726 75.464008 210.55319 80.7363 208.88347 86.294368 207.28809 91.85243 205.69272 97.66952 204.17937 103.745609 202.74805 109.8217 201.31673 116.12754 199.97434 122.66313 198.72086 129.19873 197.46739 135.93262 196.30889 142.86479 195.24532 149.79695 194.18175 156.89402 193.21826 164.15598 192.35485 171.41796 191.49146 178.80985 190.73229 186.33168 190.07735 193.85352 189.4224 201.46907 188.87485 209.17832 188.4347 216.88759 187.99454 224.65345 187.66388 232.4759 187.44274 240.29834 187.22158 248.13971 187.111 256 187.111 263.8603 187.111 271.70167 187.22158 279.52415 187.44274 287.34657 187.66388 295.1124 187.99454 302.82167 188.4347 310.53096 188.87485 318.1465 189.4224 325.66835 190.07735 333.19017 190.73229 340.58207 191.49146 347.844 192.35485 355.106 193.21826 362.20304 194.18175 369.1352 195.2453 376.06736 196.30889 382.8012 197.46739 389.3368 198.72086 395.8724 199.97435 402.17826 201.31674 408.25434 202.74806 414.33045 204.17938 420.14753 205.69274 425.7056 207.2881 431.26368 208.88349 436.53599 210.5532 441.52247 212.29727 446.509 214.04132 451.18574 215.85132 455.55265 217.72728 459.91963 219.60324 463.95576 221.53612 467.66108 223.52591 471.36643 225.5157 474.72309 227.55283 477.73106 229.63729 480.73908 231.72174 483.38398 233.8435 485.66569 236.00255 487.94743 238.16159 489.855 240.34754 491.38847 242.56038 492.92195 244.77324 494.0739 247.00234 494.84437 249.24768 495.61479 251.49303 496 253.74379 496 255.99999Z" fill="#ffde59"/>
</g>
</g>
</g>
</g>
<g clip-path="url(#clip_10)">
<path transform="matrix(.16030273,0,0,.16030273,-2.5648437,217.46518)" d="M496 255.99999C496 258.25617 495.61479 260.50697 494.84434 262.7523 494.0739 264.99763 492.92195 267.2267 491.38847 269.43955 489.855 271.6524 487.94743 273.83836 485.6657 275.9974 483.38398 278.15644 480.73908 280.2782 477.73106 282.36265 474.72309 284.4471 471.36643 286.48423 467.66108 288.474 463.95576 290.4638 459.91963 292.39668 455.55265 294.2726 451.18574 296.1486 446.509 297.95863 441.52247 299.70268 436.53599 301.44676 431.26368 303.11647 425.7056 304.71183 420.14753 306.3072 414.33045 307.82057 408.25434 309.2519 402.17826 310.6832 395.8724 312.02558 389.3368 313.27903 382.8012 314.53254 376.06736 315.69105 369.1352 316.7546 362.20304 317.81819 355.106 318.78166 347.844 319.64506 340.58207 320.50849 333.19017 321.26768 325.66835 321.9226 318.1465 322.57756 310.53096 323.12513 302.82167 323.56529 295.1124 324.00544 287.34657 324.3361 279.52415 324.55726 271.70167 324.7784 263.8603 324.88899 256 324.88899 248.13971 324.88899 240.29834 324.7784 232.47589 324.55726 224.65343 324.3361 216.88758 324.00544 209.1783 323.56529 201.46906 323.12513 193.8535 322.57756 186.33167 321.9226 178.80983 321.26768 171.41794 320.5085 164.15596 319.64509 156.89402 318.78169 149.79695 317.8182 142.86478 316.75468 135.9326 315.6911 129.19873 314.53257 122.66313 313.27906 116.12754 312.0256 109.8217 310.6832 103.745609 309.2519 97.66952 307.82057 91.85243 306.3072 86.294368 304.71183 80.7363 303.11647 75.464008 301.44676 70.477489 299.70268 65.49097 297.95863 60.814237 296.1486 56.447286 294.27265 52.08034 292.3967 48.04421 290.4638 44.33889 288.47404 40.63357 286.48426 37.276914 284.4471 34.268907 282.36265 31.260903 280.2782 28.61604 278.15644 26.334319 275.9974 24.052594 273.83836 22.144999 271.6524 20.61153 269.43955 19.078064 267.2267 17.92611 264.99763 17.155665 262.7523 16.385222 260.50697 16 258.25617 16 255.99999 16 253.74379 16.385222 251.49303 17.155667 249.24768 17.92611 247.00234 19.078064 244.77324 20.61153 242.56038 22.144999 240.34754 24.052594 238.16159 26.334319 236.00255 28.61604 233.8435 31.260903 231.72174 34.268907 229.63729 37.276914 227.55283 40.63357 225.51572 44.33889 223.52593 48.04421 221.53614 52.08034 219.60324 56.447286 217.72728 60.814237 215.85132 65.49097 214.04132 70.477489 212.29726 75.464008 210.55319 80.7363 208.88347 86.294368 207.28809 91.85243 205.69272 97.66952 204.17937 103.745609 202.74805 109.8217 201.31673 116.12754 199.97434 122.66313 198.72086 129.19873 197.46739 135.93262 196.30889 142.86479 195.24532 149.79695 194.18175 156.89402 193.21826 164.15598 192.35485 171.41796 191.49146 178.80985 190.73229 186.33168 190.07735 193.85352 189.4224 201.46907 188.87485 209.17832 188.4347 216.88759 187.99454 224.65345 187.66388 232.4759 187.44274 240.29834 187.22158 248.13971 187.111 256 187.111 263.8603 187.111 271.70167 187.22158 279.52415 187.44274 287.34657 187.66388 295.1124 187.99454 302.82167 188.4347 310.53096 188.87485 318.1465 189.4224 325.66835 190.07735 333.19017 190.73229 340.58207 191.49146 347.844 192.35485 355.106 193.21826 362.20304 194.18175 369.1352 195.2453 376.06736 196.30889 382.8012 197.46739 389.3368 198.72086 395.8724 199.97435 402.17826 201.31674 408.25434 202.74806 414.33045 204.17938 420.14753 205.69274 425.7056 207.2881 431.26368 208.88349 436.53599 210.5532 441.52247 212.29727 446.509 214.04132 451.18574 215.85132 455.55265 217.72728 459.91963 219.60324 463.95576 221.53612 467.66108 223.52591 471.36643 225.5157 474.72309 227.55283 477.73106 229.63729 480.73908 231.72174 483.38398 233.8435 485.66569 236.00255 487.94743 238.16159 489.855 240.34754 491.38847 242.56038 492.92195 244.77324 494.0739 247.00234 494.84437 249.24768 495.61479 251.49303 496 253.74379 496 255.99999Z" fill="#ffde59"/>
</g>
<g clip-path="url(#clip_11)">
<g clip-path="url(#clip_12)">
<g clip-path="url(#clip_13)">
<g clip-path="url(#clip_14)">
<path transform="matrix(.1284207,-.09594316,.09594316,.1284207,19.508368,368.13069)" d="M496 255.99999C496 258.25617 495.61479 260.50697 494.84434 262.7523 494.0739 264.99763 492.92195 267.2267 491.38847 269.43955 489.855 271.6524 487.94743 273.83836 485.6657 275.9974 483.38398 278.15644 480.73908 280.2782 477.73106 282.36265 474.72309 284.4471 471.36643 286.48423 467.66108 288.474 463.95576 290.4638 459.91963 292.39668 455.55265 294.2726 451.18574 296.1486 446.509 297.95863 441.52247 299.70268 436.53599 301.44676 431.26368 303.11647 425.7056 304.71183 420.14753 306.3072 414.33045 307.82057 408.25434 309.2519 402.17826 310.6832 395.8724 312.02558 389.3368 313.27903 382.8012 314.53254 376.06736 315.69105 369.1352 316.7546 362.20304 317.81819 355.106 318.78166 347.844 319.64506 340.58207 320.50849 333.19017 321.26768 325.66835 321.9226 318.1465 322.57756 310.53096 323.12513 302.82167 323.56529 295.1124 324.00544 287.34657 324.3361 279.52415 324.55726 271.70167 324.7784 263.8603 324.88899 256 324.88899 248.13971 324.88899 240.29834 324.7784 232.47589 324.55726 224.65343 324.3361 216.88758 324.00544 209.1783 323.56529 201.46906 323.12513 193.8535 322.57756 186.33167 321.9226 178.80983 321.26768 171.41794 320.5085 164.15596 319.64509 156.89402 318.78169 149.79695 317.8182 142.86478 316.75468 135.9326 315.6911 129.19873 314.53257 122.66313 313.27906 116.12754 312.0256 109.8217 310.6832 103.745609 309.2519 97.66952 307.82057 91.85243 306.3072 86.294368 304.71183 80.7363 303.11647 75.464008 301.44676 70.477489 299.70268 65.49097 297.95863 60.814237 296.1486 56.447286 294.27265 52.08034 292.3967 48.04421 290.4638 44.33889 288.47404 40.63357 286.48426 37.276914 284.4471 34.268907 282.36265 31.260903 280.2782 28.61604 278.15644 26.334319 275.9974 24.052594 273.83836 22.144999 271.6524 20.61153 269.43955 19.078064 267.2267 17.92611 264.99763 17.155665 262.7523 16.385222 260.50697 16 258.25617 16 255.99999 16 253.74379 16.385222 251.49303 17.155667 249.24768 17.92611 247.00234 19.078064 244.77324 20.61153 242.56038 22.144999 240.34754 24.052594 238.16159 26.334319 236.00255 28.61604 233.8435 31.260903 231.72174 34.268907 229.63729 37.276914 227.55283 40.63357 225.51572 44.33889 223.52593 48.04421 221.53614 52.08034 219.60324 56.447286 217.72728 60.814237 215.85132 65.49097 214.04132 70.477489 212.29726 75.464008 210.55319 80.7363 208.88347 86.294368 207.28809 91.85243 205.69272 97.66952 204.17937 103.745609 202.74805 109.8217 201.31673 116.12754 199.97434 122.66313 198.72086 129.19873 197.46739 135.93262 196.30889 142.86479 195.24532 149.79695 194.18175 156.89402 193.21826 164.15598 192.35485 171.41796 191.49146 178.80985 190.73229 186.33168 190.07735 193.85352 189.4224 201.46907 188.87485 209.17832 188.4347 216.88759 187.99454 224.65345 187.66388 232.4759 187.44274 240.29834 187.22158 248.13971 187.111 256 187.111 263.8603 187.111 271.70167 187.22158 279.52415 187.44274 287.34657 187.66388 295.1124 187.99454 302.82167 188.4347 310.53096 188.87485 318.1465 189.4224 325.66835 190.07735 333.19017 190.73229 340.58207 191.49146 347.844 192.35485 355.106 193.21826 362.20304 194.18175 369.1352 195.2453 376.06736 196.30889 382.8012 197.46739 389.3368 198.72086 395.8724 199.97435 402.17826 201.31674 408.25434 202.74806 414.33045 204.17938 420.14753 205.69274 425.7056 207.2881 431.26368 208.88349 436.53599 210.5532 441.52247 212.29727 446.509 214.04132 451.18574 215.85132 455.55265 217.72728 459.91963 219.60324 463.95576 221.53612 467.66108 223.52591 471.36643 225.5157 474.72309 227.55283 477.73106 229.63729 480.73908 231.72174 483.38398 233.8435 485.66569 236.00255 487.94743 238.16159 489.855 240.34754 491.38847 242.56038 492.92195 244.77324 494.0739 247.00234 494.84437 249.24768 495.61479 251.49303 496 253.74379 496 255.99999Z" fill="#ffde59"/>
</g>
</g>
</g>
</g>
<g clip-path="url(#clip_15)">
<g clip-path="url(#clip_16)">
<g clip-path="url(#clip_17)">
<g clip-path="url(#clip_18)">
<path transform="matrix(-.004830588,-.16022994,.16022994,-.004830588,218.49483,498.14994)" d="M496 255.99999C496 258.25617 495.61479 260.50697 494.84434 262.7523 494.0739 264.99763 492.92195 267.2267 491.38847 269.43955 489.855 271.6524 487.94743 273.83836 485.6657 275.9974 483.38398 278.15644 480.73908 280.2782 477.73106 282.36265 474.72309 284.4471 471.36643 286.48423 467.66108 288.474 463.95576 290.4638 459.91963 292.39668 455.55265 294.2726 451.18574 296.1486 446.509 297.95863 441.52247 299.70268 436.53599 301.44676 431.26368 303.11647 425.7056 304.71183 420.14753 306.3072 414.33045 307.82057 408.25434 309.2519 402.17826 310.6832 395.8724 312.02558 389.3368 313.27903 382.8012 314.53254 376.06736 315.69105 369.1352 316.7546 362.20304 317.81819 355.106 318.78166 347.844 319.64506 340.58207 320.50849 333.19017 321.26768 325.66835 321.9226 318.1465 322.57756 310.53096 323.12513 302.82167 323.56529 295.1124 324.00544 287.34657 324.3361 279.52415 324.55726 271.70167 324.7784 263.8603 324.88899 256 324.88899 248.13971 324.88899 240.29834 324.7784 232.47589 324.55726 224.65343 324.3361 216.88758 324.00544 209.1783 323.56529 201.46906 323.12513 193.8535 322.57756 186.33167 321.9226 178.80983 321.26768 171.41794 320.5085 164.15596 319.64509 156.89402 318.78169 149.79695 317.8182 142.86478 316.75468 135.9326 315.6911 129.19873 314.53257 122.66313 313.27906 116.12754 312.0256 109.8217 310.6832 103.745609 309.2519 97.66952 307.82057 91.85243 306.3072 86.294368 304.71183 80.7363 303.11647 75.464008 301.44676 70.477489 299.70268 65.49097 297.95863 60.814237 296.1486 56.447286 294.27265 52.08034 292.3967 48.04421 290.4638 44.33889 288.47404 40.63357 286.48426 37.276914 284.4471 34.268907 282.36265 31.260903 280.2782 28.61604 278.15644 26.334319 275.9974 24.052594 273.83836 22.144999 271.6524 20.61153 269.43955 19.078064 267.2267 17.92611 264.99763 17.155665 262.7523 16.385222 260.50697 16 258.25617 16 255.99999 16 253.74379 16.385222 251.49303 17.155667 249.24768 17.92611 247.00234 19.078064 244.77324 20.61153 242.56038 22.144999 240.34754 24.052594 238.16159 26.334319 236.00255 28.61604 233.8435 31.260903 231.72174 34.268907 229.63729 37.276914 227.55283 40.63357 225.51572 44.33889 223.52593 48.04421 221.53614 52.08034 219.60324 56.447286 217.72728 60.814237 215.85132 65.49097 214.04132 70.477489 212.29726 75.464008 210.55319 80.7363 208.88347 86.294368 207.28809 91.85243 205.69272 97.66952 204.17937 103.745609 202.74805 109.8217 201.31673 116.12754 199.97434 122.66313 198.72086 129.19873 197.46739 135.93262 196.30889 142.86479 195.24532 149.79695 194.18175 156.89402 193.21826 164.15598 192.35485 171.41796 191.49146 178.80985 190.73229 186.33168 190.07735 193.85352 189.4224 201.46907 188.87485 209.17832 188.4347 216.88759 187.99454 224.65345 187.66388 232.4759 187.44274 240.29834 187.22158 248.13971 187.111 256 187.111 263.8603 187.111 271.70167 187.22158 279.52415 187.44274 287.34657 187.66388 295.1124 187.99454 302.82167 188.4347 310.53096 188.87485 318.1465 189.4224 325.66835 190.07735 333.19017 190.73229 340.58207 191.49146 347.844 192.35485 355.106 193.21826 362.20304 194.18175 369.1352 195.2453 376.06736 196.30889 382.8012 197.46739 389.3368 198.72086 395.8724 199.97435 402.17826 201.31674 408.25434 202.74806 414.33045 204.17938 420.14753 205.69274 425.7056 207.2881 431.26368 208.88349 436.53599 210.5532 441.52247 212.29727 446.509 214.04132 451.18574 215.85132 455.55265 217.72728 459.91963 219.60324 463.95576 221.53612 467.66108 223.52591 471.36643 225.5157 474.72309 227.55283 477.73106 229.63729 480.73908 231.72174 483.38398 233.8435 485.66569 236.00255 487.94743 238.16159 489.855 240.34754 491.38847 242.56038 492.92195 244.77324 494.0739 247.00234 494.84437 249.24768 495.61479 251.49303 496 253.74379 496 255.99999Z" fill="#ffde59"/>
</g>
</g>
</g>
</g>
<g clip-path="url(#clip_19)">
<g clip-path="url(#clip_20)">
<g clip-path="url(#clip_21)">
<g clip-path="url(#clip_22)">
<path transform="matrix(-.004830588,-.16022994,.16022994,-.004830588,206.28829,81.04252)" d="M496 255.99999C496 258.25617 495.61479 260.50697 494.84434 262.7523 494.0739 264.99763 492.92195 267.2267 491.38847 269.43955 489.855 271.6524 487.94743 273.83836 485.6657 275.9974 483.38398 278.15644 480.73908 280.2782 477.73106 282.36265 474.72309 284.4471 471.36643 286.48423 467.66108 288.474 463.95576 290.4638 459.91963 292.39668 455.55265 294.2726 451.18574 296.1486 446.509 297.95863 441.52247 299.70268 436.53599 301.44676 431.26368 303.11647 425.7056 304.71183 420.14753 306.3072 414.33045 307.82057 408.25434 309.2519 402.17826 310.6832 395.8724 312.02558 389.3368 313.27903 382.8012 314.53254 376.06736 315.69105 369.1352 316.7546 362.20304 317.81819 355.106 318.78166 347.844 319.64506 340.58207 320.50849 333.19017 321.26768 325.66835 321.9226 318.1465 322.57756 310.53096 323.12513 302.82167 323.56529 295.1124 324.00544 287.34657 324.3361 279.52415 324.55726 271.70167 324.7784 263.8603 324.88899 256 324.88899 248.13971 324.88899 240.29834 324.7784 232.47589 324.55726 224.65343 324.3361 216.88758 324.00544 209.1783 323.56529 201.46906 323.12513 193.8535 322.57756 186.33167 321.9226 178.80983 321.26768 171.41794 320.5085 164.15596 319.64509 156.89402 318.78169 149.79695 317.8182 142.86478 316.75468 135.9326 315.6911 129.19873 314.53257 122.66313 313.27906 116.12754 312.0256 109.8217 310.6832 103.745609 309.2519 97.66952 307.82057 91.85243 306.3072 86.294368 304.71183 80.7363 303.11647 75.464008 301.44676 70.477489 299.70268 65.49097 297.95863 60.814237 296.1486 56.447286 294.27265 52.08034 292.3967 48.04421 290.4638 44.33889 288.47404 40.63357 286.48426 37.276914 284.4471 34.268907 282.36265 31.260903 280.2782 28.61604 278.15644 26.334319 275.9974 24.052594 273.83836 22.144999 271.6524 20.61153 269.43955 19.078064 267.2267 17.92611 264.99763 17.155665 262.7523 16.385222 260.50697 16 258.25617 16 255.99999 16 253.74379 16.385222 251.49303 17.155667 249.24768 17.92611 247.00234 19.078064 244.77324 20.61153 242.56038 22.144999 240.34754 24.052594 238.16159 26.334319 236.00255 28.61604 233.8435 31.260903 231.72174 34.268907 229.63729 37.276914 227.55283 40.63357 225.51572 44.33889 223.52593 48.04421 221.53614 52.08034 219.60324 56.447286 217.72728 60.814237 215.85132 65.49097 214.04132 70.477489 212.29726 75.464008 210.55319 80.7363 208.88347 86.294368 207.28809 91.85243 205.69272 97.66952 204.17937 103.745609 202.74805 109.8217 201.31673 116.12754 199.97434 122.66313 198.72086 129.19873 197.46739 135.93262 196.30889 142.86479 195.24532 149.79695 194.18175 156.89402 193.21826 164.15598 192.35485 171.41796 191.49146 178.80985 190.73229 186.33168 190.07735 193.85352 189.4224 201.46907 188.87485 209.17832 188.4347 216.88759 187.99454 224.65345 187.66388 232.4759 187.44274 240.29834 187.22158 248.13971 187.111 256 187.111 263.8603 187.111 271.70167 187.22158 279.52415 187.44274 287.34657 187.66388 295.1124 187.99454 302.82167 188.4347 310.53096 188.87485 318.1465 189.4224 325.66835 190.07735 333.19017 190.73229 340.58207 191.49146 347.844 192.35485 355.106 193.21826 362.20304 194.18175 369.1352 195.2453 376.06736 196.30889 382.8012 197.46739 389.3368 198.72086 395.8724 199.97435 402.17826 201.31674 408.25434 202.74806 414.33045 204.17938 420.14753 205.69274 425.7056 207.2881 431.26368 208.88349 436.53599 210.5532 441.52247 212.29727 446.509 214.04132 451.18574 215.85132 455.55265 217.72728 459.91963 219.60324 463.95576 221.53612 467.66108 223.52591 471.36643 225.5157 474.72309 227.55283 477.73106 229.63729 480.73908 231.72174 483.38398 233.8435 485.66569 236.00255 487.94743 238.16159 489.855 240.34754 491.38847 242.56038 492.92195 244.77324 494.0739 247.00234 494.84437 249.24768 495.61479 251.49303 496 253.74379 496 255.99999Z" fill="#ffde59"/>
</g>
</g>
</g>
</g>
<g clip-path="url(#clip_23)">
<g clip-path="url(#clip_24)">
<g clip-path="url(#clip_25)">
<g clip-path="url(#clip_26)">
<path transform="matrix(.120522048,-.105694849,.105694849,.120522048,340.34419,105.429698)" d="M496 255.99999C496 258.25617 495.61479 260.50697 494.84434 262.7523 494.0739 264.99763 492.92195 267.2267 491.38847 269.43955 489.855 271.6524 487.94743 273.83836 485.6657 275.9974 483.38398 278.15644 480.73908 280.2782 477.73106 282.36265 474.72309 284.4471 471.36643 286.48423 467.66108 288.474 463.95576 290.4638 459.91963 292.39668 455.55265 294.2726 451.18574 296.1486 446.509 297.95863 441.52247 299.70268 436.53599 301.44676 431.26368 303.11647 425.7056 304.71183 420.14753 306.3072 414.33045 307.82057 408.25434 309.2519 402.17826 310.6832 395.8724 312.02558 389.3368 313.27903 382.8012 314.53254 376.06736 315.69105 369.1352 316.7546 362.20304 317.81819 355.106 318.78166 347.844 319.64506 340.58207 320.50849 333.19017 321.26768 325.66835 321.9226 318.1465 322.57756 310.53096 323.12513 302.82167 323.56529 295.1124 324.00544 287.34657 324.3361 279.52415 324.55726 271.70167 324.7784 263.8603 324.88899 256 324.88899 248.13971 324.88899 240.29834 324.7784 232.47589 324.55726 224.65343 324.3361 216.88758 324.00544 209.1783 323.56529 201.46906 323.12513 193.8535 322.57756 186.33167 321.9226 178.80983 321.26768 171.41794 320.5085 164.15596 319.64509 156.89402 318.78169 149.79695 317.8182 142.86478 316.75468 135.9326 315.6911 129.19873 314.53257 122.66313 313.27906 116.12754 312.0256 109.8217 310.6832 103.745609 309.2519 97.66952 307.82057 91.85243 306.3072 86.294368 304.71183 80.7363 303.11647 75.464008 301.44676 70.477489 299.70268 65.49097 297.95863 60.814237 296.1486 56.447286 294.27265 52.08034 292.3967 48.04421 290.4638 44.33889 288.47404 40.63357 286.48426 37.276914 284.4471 34.268907 282.36265 31.260903 280.2782 28.61604 278.15644 26.334319 275.9974 24.052594 273.83836 22.144999 271.6524 20.61153 269.43955 19.078064 267.2267 17.92611 264.99763 17.155665 262.7523 16.385222 260.50697 16 258.25617 16 255.99999 16 253.74379 16.385222 251.49303 17.155667 249.24768 17.92611 247.00234 19.078064 244.77324 20.61153 242.56038 22.144999 240.34754 24.052594 238.16159 26.334319 236.00255 28.61604 233.8435 31.260903 231.72174 34.268907 229.63729 37.276914 227.55283 40.63357 225.51572 44.33889 223.52593 48.04421 221.53614 52.08034 219.60324 56.447286 217.72728 60.814237 215.85132 65.49097 214.04132 70.477489 212.29726 75.464008 210.55319 80.7363 208.88347 86.294368 207.28809 91.85243 205.69272 97.66952 204.17937 103.745609 202.74805 109.8217 201.31673 116.12754 199.97434 122.66313 198.72086 129.19873 197.46739 135.93262 196.30889 142.86479 195.24532 149.79695 194.18175 156.89402 193.21826 164.15598 192.35485 171.41796 191.49146 178.80985 190.73229 186.33168 190.07735 193.85352 189.4224 201.46907 188.87485 209.17832 188.4347 216.88759 187.99454 224.65345 187.66388 232.4759 187.44274 240.29834 187.22158 248.13971 187.111 256 187.111 263.8603 187.111 271.70167 187.22158 279.52415 187.44274 287.34657 187.66388 295.1124 187.99454 302.82167 188.4347 310.53096 188.87485 318.1465 189.4224 325.66835 190.07735 333.19017 190.73229 340.58207 191.49146 347.844 192.35485 355.106 193.21826 362.20304 194.18175 369.1352 195.2453 376.06736 196.30889 382.8012 197.46739 389.3368 198.72086 395.8724 199.97435 402.17826 201.31674 408.25434 202.74806 414.33045 204.17938 420.14753 205.69274 425.7056 207.2881 431.26368 208.88349 436.53599 210.5532 441.52247 212.29727 446.509 214.04132 451.18574 215.85132 455.55265 217.72728 459.91963 219.60324 463.95576 221.53612 467.66108 223.52591 471.36643 225.5157 474.72309 227.55283 477.73106 229.63729 480.73908 231.72174 483.38398 233.8435 485.66569 236.00255 487.94743 238.16159 489.855 240.34754 491.38847 242.56038 492.92195 244.77324 494.0739 247.00234 494.84437 249.24768 495.61479 251.49303 496 253.74379 496 255.99999Z" fill="#ffde59"/>
</g>
</g>
</g>
</g>
<g clip-path="url(#clip_27)">
<g clip-path="url(#clip_28)">
<g clip-path="url(#clip_29)">
<g clip-path="url(#clip_30)">
<path transform="matrix(-.11335115,-.11335115,.11335115,-.11335115,106.35439,150.16814)" d="M496 255.99999C496 258.25617 495.61479 260.50697 494.84434 262.7523 494.0739 264.99763 492.92195 267.2267 491.38847 269.43955 489.855 271.6524 487.94743 273.83836 485.6657 275.9974 483.38398 278.15644 480.73908 280.2782 477.73106 282.36265 474.72309 284.4471 471.36643 286.48423 467.66108 288.474 463.95576 290.4638 459.91963 292.39668 455.55265 294.2726 451.18574 296.1486 446.509 297.95863 441.52247 299.70268 436.53599 301.44676 431.26368 303.11647 425.7056 304.71183 420.14753 306.3072 414.33045 307.82057 408.25434 309.2519 402.17826 310.6832 395.8724 312.02558 389.3368 313.27903 382.8012 314.53254 376.06736 315.69105 369.1352 316.7546 362.20304 317.81819 355.106 318.78166 347.844 319.64506 340.58207 320.50849 333.19017 321.26768 325.66835 321.9226 318.1465 322.57756 310.53096 323.12513 302.82167 323.56529 295.1124 324.00544 287.34657 324.3361 279.52415 324.55726 271.70167 324.7784 263.8603 324.88899 256 324.88899 248.13971 324.88899 240.29834 324.7784 232.47589 324.55726 224.65343 324.3361 216.88758 324.00544 209.1783 323.56529 201.46906 323.12513 193.8535 322.57756 186.33167 321.9226 178.80983 321.26768 171.41794 320.5085 164.15596 319.64509 156.89402 318.78169 149.79695 317.8182 142.86478 316.75468 135.9326 315.6911 129.19873 314.53257 122.66313 313.27906 116.12754 312.0256 109.8217 310.6832 103.745609 309.2519 97.66952 307.82057 91.85243 306.3072 86.294368 304.71183 80.7363 303.11647 75.464008 301.44676 70.477489 299.70268 65.49097 297.95863 60.814237 296.1486 56.447286 294.27265 52.08034 292.3967 48.04421 290.4638 44.33889 288.47404 40.63357 286.48426 37.276914 284.4471 34.268907 282.36265 31.260903 280.2782 28.61604 278.15644 26.334319 275.9974 24.052594 273.83836 22.144999 271.6524 20.61153 269.43955 19.078064 267.2267 17.92611 264.99763 17.155665 262.7523 16.385222 260.50697 16 258.25617 16 255.99999 16 253.74379 16.385222 251.49303 17.155667 249.24768 17.92611 247.00234 19.078064 244.77324 20.61153 242.56038 22.144999 240.34754 24.052594 238.16159 26.334319 236.00255 28.61604 233.8435 31.260903 231.72174 34.268907 229.63729 37.276914 227.55283 40.63357 225.51572 44.33889 223.52593 48.04421 221.53614 52.08034 219.60324 56.447286 217.72728 60.814237 215.85132 65.49097 214.04132 70.477489 212.29726 75.464008 210.55319 80.7363 208.88347 86.294368 207.28809 91.85243 205.69272 97.66952 204.17937 103.745609 202.74805 109.8217 201.31673 116.12754 199.97434 122.66313 198.72086 129.19873 197.46739 135.93262 196.30889 142.86479 195.24532 149.79695 194.18175 156.89402 193.21826 164.15598 192.35485 171.41796 191.49146 178.80985 190.73229 186.33168 190.07735 193.85352 189.4224 201.46907 188.87485 209.17832 188.4347 216.88759 187.99454 224.65345 187.66388 232.4759 187.44274 240.29834 187.22158 248.13971 187.111 256 187.111 263.8603 187.111 271.70167 187.22158 279.52415 187.44274 287.34657 187.66388 295.1124 187.99454 302.82167 188.4347 310.53096 188.87485 318.1465 189.4224 325.66835 190.07735 333.19017 190.73229 340.58207 191.49146 347.844 192.35485 355.106 193.21826 362.20304 194.18175 369.1352 195.2453 376.06736 196.30889 382.8012 197.46739 389.3368 198.72086 395.8724 199.97435 402.17826 201.31674 408.25434 202.74806 414.33045 204.17938 420.14753 205.69274 425.7056 207.2881 431.26368 208.88349 436.53599 210.5532 441.52247 212.29727 446.509 214.04132 451.18574 215.85132 455.55265 217.72728 459.91963 219.60324 463.95576 221.53612 467.66108 223.52591 471.36643 225.5157 474.72309 227.55283 477.73106 229.63729 480.73908 231.72174 483.38398 233.8435 485.66569 236.00255 487.94743 238.16159 489.855 240.34754 491.38847 242.56038 492.92195 244.77324 494.0739 247.00234 494.84437 249.24768 495.61479 251.49303 496 253.74379 496 255.99999Z" fill="#ffde59"/>
</g>
</g>
</g>
</g>
<g clip-path="url(#clip_31)">
<g clip-path="url(#clip_32)">
<g clip-path="url(#clip_33)">
<g clip-path="url(#clip_34)">
<path transform="matrix(.11104061,0,0,.11104061,166.7186,190.97689)" d="M0 0H256V256H0Z"/>
</g>
</g>
</g>
</g>
<g clip-path="url(#clip_35)">
<g clip-path="url(#clip_36)">
<g clip-path="url(#clip_37)">
<g clip-path="url(#clip_38)">
<path transform="matrix(.11104061,0,0,.11104061,292.2325,190.97689)" d="M0 0H256V256H0Z"/>
</g>
</g>
</g>
</g>
<g clip-path="url(#clip_39)">
<g clip-path="url(#clip_40)">
<g clip-path="url(#clip_41)">
<g clip-path="url(#clip_42)">
<path transform="matrix(.20007596,0,0,.20007596,213.50447,269.5563)" d="M0 0H256V256H0Z"/>
</g>
</g>
</g>
</g>
</svg>
